<?xml version="1.0" encoding="UTF-8" standalone="no"?>
<!-- Created with Fritzing (http://www.fritzing.org/) -->

<svg
   version="1.2"
   x="0in"
   y="0in"
   width="1.4in"
   height="0.66000003in"
   viewBox="0 0 100.8 47.52"
   id="svg129"
   sodipodi:docname="HM3-2064-5.svg"
   inkscape:version="1.1.2 (0a00cf5339, 2022-02-04)"
   xmlns:inkscape="http://www.inkscape.org/namespaces/inkscape"
   xmlns:sodipodi="http://sodipodi.sourceforge.net/DTD/sodipodi-0.dtd"
   xmlns="http://www.w3.org/2000/svg"
   xmlns:svg="http://www.w3.org/2000/svg">
  <defs
     id="defs133" />
  <sodipodi:namedview
     id="namedview131"
     pagecolor="#ffffff"
     bordercolor="#666666"
     borderopacity="1.0"
     inkscape:pageshadow="2"
     inkscape:pageopacity="0.0"
     inkscape:pagecheckerboard="0"
     inkscape:document-units="in"
     showgrid="false"
     inkscape:zoom="9.5386906"
     inkscape:cx="73.22808"
     inkscape:cy="30.507332"
     inkscape:window-width="1920"
     inkscape:window-height="1011"
     inkscape:window-x="0"
     inkscape:window-y="32"
     inkscape:window-maximized="1"
     inkscape:current-layer="g127"
     height="0.66in" />
  <g
     partID="68250"
     id="g127">
    <g
       id="breadboard"
       transform="matrix(1.0035123,0,0,0.99572552,0,0.10156166)">
      <rect
         x="0"
         fill="#303030"
         width="100.8"
         id="middle"
         y="2.0672748"
         height="43.421234"
         style="stroke-width:1.49452" />
      <rect
         x="0"
         fill="#3d3d3d"
         width="100.8"
         id="top"
         y="2.1600001"
         height="1.7711999" />
      <rect
         x="0"
         fill="#3d3d3d"
         width="100.80594"
         id="top-5"
         y="43.724884"
         height="1.763629"
         style="stroke-width:0.99789" />
      <polygon
         fill="#141414"
         id="right"
         points="100.26,19.8288 100.8,21.6 100.8,2.16 100.26,3.9312 " />
      <polygon
         fill="#141414"
         id="right-2"
         points="100.26,3.9312 100.26,19.8288 100.8,21.6 100.8,2.16 "
         transform="matrix(1.0035123,0,0,0.99572552,-0.35403679,23.980839)" />
      <polygon
         fill="#141414"
         id="right-2-9"
         points="100.8,2.16 100.26,3.9312 100.26,19.8288 100.8,21.6 "
         transform="matrix(1.0070369,0,0,0.99146931,-0.70551959,15.931136)" />
      <polygon
         fill="#1f1f1f"
         id="left"
         points="0.54,19.8288 0,21.6 0,2.16 0.54,3.9312 " />
      <polygon
         fill="#1f1f1f"
         id="left-5"
         points="0.54,3.9312 0.54,19.8288 0,21.6 0,2.16 "
         transform="matrix(1.0035123,0,0,0.99572552,0,23.980843)" />
      <polygon
         fill="#1f1f1f"
         id="left-5-6"
         points="0,21.6 0,2.16 0.54,3.9312 0.54,19.8288 "
         transform="matrix(1.0070369,0,0,0.99146931,-0.03684412,11.492891)" />
      <polygon
         fill="#1c1c1c"
         id="left-upper-rect"
         points="0.4032,9.7776 0.4032,11.88 3.6,11.88 3.6,8.28 0.54,8.2512 "
         transform="translate(0,11.965655)" />
      <polygon
         fill="#383838"
         id="left-lower-rect"
         points="3.6,11.88 0.4032,11.88 0.4032,13.9824 0.54,15.516 3.6,15.516 "
         transform="translate(0,11.952309)" />
      <path
         fill="#262626"
         id="slot"
         d="m 0.4032,21.735346 v 4.1976 c 1.0584,-0.1224 1.8864,-1.008 1.8864,-2.1024 0,-1.0944 -0.8208,-1.9728 -1.8864,-2.0952 z" />
      <path
         fill="#303030"
         id="cover"
         d="m 0.54,15.87831 v 4.3128 c 1.7136,0.324 3.0168,1.8216 3.0168,3.6288 0,1.8072 -1.296,3.312 -3.0168,3.636 v 0.0072 h 3.6 v -11.5848 z" />
      <text
         x="4.6799998"
         text-anchor="start"
         fill="#e6e6e6"
         id="label"
         font-size="5.76px"
         y="11.88"
         stroke="none"
         font-family="OCRA" />
      <rect
         x="2.52"
         fill="#8c8c8c"
         width="2.1600001"
         id="connector0pin"
         y="44.512707"
         height="3.1248" />
      <rect
         x="2.52"
         fill="#8c8c8c"
         width="2.1600001"
         id="connector0terminal"
         y="45.452724"
         height="2.1600001" />
      <polygon
         fill="#8c8c8c"
         points="4.68,22.0752 6.12,21.4128 6.12,20.6352 2.52,20.6352 2.52,22.0752 "
         id="polygon16"
         transform="translate(0,23.877508)" />
      <rect
         x="2.52"
         fill="#8c8c8c"
         width="2.1600001"
         id="connector27pin"
         height="3.1248"
         y="0" />
      <rect
         x="2.52"
         fill="#8c8c8c"
         width="2.1600001"
         id="connector27terminal"
         height="2.1600001"
         y="0" />
      <polygon
         fill="#8c8c8c"
         points="6.12,2.3472 4.68,1.6848 2.52,1.6848 2.52,3.1248 6.12,3.1248 "
         id="polygon20" />
      <rect
         x="96.120003"
         fill="#8c8c8c"
         width="2.1600001"
         id="connector13pin"
         y="44.512707"
         height="3.1248" />
      <rect
         x="96.120003"
         fill="#8c8c8c"
         width="2.1600001"
         id="connector13terminal"
         y="45.452724"
         height="2.1600001" />
      <polygon
         fill="#8c8c8c"
         points="96.12,22.0752 98.28,22.0752 98.28,20.6352 94.68,20.6352 94.68,21.4128 "
         id="polygon24"
         transform="translate(0,23.877508)" />
      <rect
         x="96.120003"
         fill="#8c8c8c"
         width="2.1600001"
         id="connector14pin"
         y="0"
         height="3.1248" />
      <rect
         x="96.120003"
         fill="#8c8c8c"
         width="2.1600001"
         id="connector14terminal"
         y="0"
         height="2.1600001" />
      <polygon
         fill="#8c8c8c"
         points="98.28,1.6848 96.12,1.6848 94.68,2.3472 94.68,3.1248 98.28,3.1248 "
         id="polygon28" />
      <rect
         x="9.7200003"
         fill="#8c8c8c"
         width="2.1600001"
         id="connector26pin"
         y="0"
         height="3.1248" />
      <rect
         x="9.7200003"
         fill="#8c8c8c"
         width="2.1600001"
         id="connector26terminal"
         height="2.1600001"
         y="0" />
      <polygon
         fill="#8c8c8c"
         points="13.32,3.1248 13.32,2.3472 11.88,1.6848 9.72,1.6848 8.28,2.3472 8.28,3.1248 "
         id="polygon32" />
      <rect
         x="16.92"
         fill="#8c8c8c"
         width="2.1600001"
         id="connector25pin"
         y="0"
         height="3.1248" />
      <rect
         x="16.92"
         fill="#8c8c8c"
         width="2.1600001"
         id="connector25terminal"
         height="2.1600001"
         y="0" />
      <polygon
         fill="#8c8c8c"
         points="20.52,3.1248 20.52,2.3472 19.08,1.6848 16.92,1.6848 15.48,2.3472 15.48,3.1248 "
         id="polygon36" />
      <rect
         x="24.120001"
         fill="#8c8c8c"
         width="2.1600001"
         id="connector24pin"
         y="0"
         height="3.1248" />
      <rect
         x="24.120001"
         fill="#8c8c8c"
         width="2.1600001"
         id="connector24terminal"
         height="2.1600001"
         y="0" />
      <polygon
         fill="#8c8c8c"
         points="27.72,3.1248 27.72,2.3472 26.28,1.6848 24.12,1.6848 22.68,2.3472 22.68,3.1248 "
         id="polygon40" />
      <rect
         x="31.32"
         fill="#8c8c8c"
         width="2.1600001"
         id="connector23pin"
         y="0"
         height="3.1248" />
      <rect
         x="31.32"
         fill="#8c8c8c"
         width="2.1600001"
         id="connector23terminal"
         height="2.1600001"
         y="0" />
      <polygon
         fill="#8c8c8c"
         points="34.92,3.1248 34.92,2.3472 33.48,1.6848 31.32,1.6848 29.88,2.3472 29.88,3.1248 "
         id="polygon44" />
      <rect
         x="38.52"
         fill="#8c8c8c"
         width="2.1600001"
         id="connector22pin"
         y="0"
         height="3.1248" />
      <rect
         x="38.52"
         fill="#8c8c8c"
         width="2.1600001"
         id="connector22terminal"
         height="2.1600001"
         y="0" />
      <polygon
         fill="#8c8c8c"
         points="42.12,3.1248 42.12,2.3472 40.68,1.6848 38.52,1.6848 37.08,2.3472 37.08,3.1248 "
         id="polygon48" />
      <rect
         x="45.720001"
         fill="#8c8c8c"
         width="2.1600001"
         id="connector21pin"
         y="0"
         height="3.1248" />
      <rect
         x="45.720001"
         fill="#8c8c8c"
         width="2.1600001"
         id="connector21terminal"
         height="2.1600001"
         y="0" />
      <polygon
         fill="#8c8c8c"
         points="49.32,3.1248 49.32,2.3472 47.88,1.6848 45.72,1.6848 44.28,2.3472 44.28,3.1248 "
         id="polygon52" />
      <rect
         x="52.919998"
         fill="#8c8c8c"
         width="2.1600001"
         id="connector20pin"
         y="0"
         height="3.1248" />
      <rect
         x="52.919998"
         fill="#8c8c8c"
         width="2.1600001"
         id="connector20terminal"
         height="2.1600001"
         y="0" />
      <polygon
         fill="#8c8c8c"
         points="56.52,3.1248 56.52,2.3472 55.08,1.6848 52.92,1.6848 51.48,2.3472 51.48,3.1248 "
         id="polygon56" />
      <rect
         x="60.119999"
         fill="#8c8c8c"
         width="2.1600001"
         id="connector19pin"
         y="0"
         height="3.1248" />
      <rect
         x="60.119999"
         fill="#8c8c8c"
         width="2.1600001"
         id="connector19terminal"
         height="2.1600001"
         y="0" />
      <polygon
         fill="#8c8c8c"
         points="63.72,3.1248 63.72,2.3472 62.28,1.6848 60.12,1.6848 58.68,2.3472 58.68,3.1248 "
         id="polygon60" />
      <rect
         x="67.32"
         fill="#8c8c8c"
         width="2.1600001"
         id="connector18pin"
         y="0"
         height="3.1248" />
      <rect
         x="67.32"
         fill="#8c8c8c"
         width="2.1600001"
         id="connector18terminal"
         height="2.1600001"
         y="0" />
      <polygon
         fill="#8c8c8c"
         points="70.92,3.1248 70.92,2.3472 69.48,1.6848 67.32,1.6848 65.88,2.3472 65.88,3.1248 "
         id="polygon64" />
      <rect
         x="74.519997"
         fill="#8c8c8c"
         width="2.1600001"
         id="connector17pin"
         y="0"
         height="3.1248" />
      <rect
         x="74.519997"
         fill="#8c8c8c"
         width="2.1600001"
         id="connector17terminal"
         height="2.1600001"
         y="0" />
      <polygon
         fill="#8c8c8c"
         points="78.12,3.1248 78.12,2.3472 76.68,1.6848 74.52,1.6848 73.08,2.3472 73.08,3.1248 "
         id="polygon68" />
      <rect
         x="81.720001"
         fill="#8c8c8c"
         width="2.1600001"
         id="connector16pin"
         y="0"
         height="3.1248" />
      <rect
         x="81.720001"
         fill="#8c8c8c"
         width="2.1600001"
         id="connector16terminal"
         height="2.1600001"
         y="0" />
      <polygon
         fill="#8c8c8c"
         points="85.32,3.1248 85.32,2.3472 83.88,1.6848 81.72,1.6848 80.28,2.3472 80.28,3.1248 "
         id="polygon72" />
      <rect
         x="88.919998"
         fill="#8c8c8c"
         width="2.1600001"
         id="connector15pin"
         y="0"
         height="3.1248" />
      <rect
         x="88.919998"
         fill="#8c8c8c"
         width="2.1600001"
         id="connector15terminal"
         height="2.1600001"
         y="0" />
      <polygon
         fill="#8c8c8c"
         points="92.52,3.1248 92.52,2.3472 91.08,1.6848 88.92,1.6848 87.48,2.3472 87.48,3.1248 "
         id="polygon76" />
      <rect
         x="9.7200003"
         fill="#8c8c8c"
         width="2.1600001"
         id="connector1pin"
         y="44.512707"
         height="3.1248" />
      <rect
         x="9.7200003"
         fill="#8c8c8c"
         width="2.1600001"
         id="connector1terminal"
         y="45.452724"
         height="2.1600001" />
      <polygon
         fill="#8c8c8c"
         points="8.28,21.4128 9.72,22.0752 11.88,22.0752 13.32,21.4128 13.32,20.6352 8.28,20.6352 "
         id="polygon80"
         transform="translate(0,23.877508)" />
      <rect
         x="16.92"
         fill="#8c8c8c"
         width="2.1600001"
         id="connector2pin"
         y="44.512707"
         height="3.1248" />
      <rect
         x="16.92"
         fill="#8c8c8c"
         width="2.1600001"
         id="connector2terminal"
         y="45.452724"
         height="2.1600001" />
      <polygon
         fill="#8c8c8c"
         points="15.48,21.4128 16.92,22.0752 19.08,22.0752 20.52,21.4128 20.52,20.6352 15.48,20.6352 "
         id="polygon84"
         transform="translate(0,23.877508)" />
      <rect
         x="24.120001"
         fill="#8c8c8c"
         width="2.1600001"
         id="connector3pin"
         y="44.512707"
         height="3.1248" />
      <rect
         x="24.120001"
         fill="#8c8c8c"
         width="2.1600001"
         id="connector3terminal"
         y="45.452724"
         height="2.1600001" />
      <polygon
         fill="#8c8c8c"
         points="22.68,21.4128 24.12,22.0752 26.28,22.0752 27.72,21.4128 27.72,20.6352 22.68,20.6352 "
         id="polygon88"
         transform="translate(0,23.877508)" />
      <rect
         x="31.32"
         fill="#8c8c8c"
         width="2.1600001"
         id="connector4pin"
         y="44.512707"
         height="3.1248" />
      <rect
         x="31.32"
         fill="#8c8c8c"
         width="2.1600001"
         id="connector4terminal"
         y="45.452724"
         height="2.1600001" />
      <polygon
         fill="#8c8c8c"
         points="29.88,21.4128 31.32,22.0752 33.48,22.0752 34.92,21.4128 34.92,20.6352 29.88,20.6352 "
         id="polygon92"
         transform="translate(0,23.877508)" />
      <rect
         x="38.52"
         fill="#8c8c8c"
         width="2.1600001"
         id="connector5pin"
         y="44.512707"
         height="3.1248" />
      <rect
         x="38.52"
         fill="#8c8c8c"
         width="2.1600001"
         id="connector5terminal"
         y="45.452724"
         height="2.1600001" />
      <polygon
         fill="#8c8c8c"
         points="37.08,21.4128 38.52,22.0752 40.68,22.0752 42.12,21.4128 42.12,20.6352 37.08,20.6352 "
         id="polygon96"
         transform="translate(0,23.877508)" />
      <rect
         x="45.720001"
         fill="#8c8c8c"
         width="2.1600001"
         id="connector6pin"
         y="44.512707"
         height="3.1248" />
      <rect
         x="45.720001"
         fill="#8c8c8c"
         width="2.1600001"
         id="connector6terminal"
         y="45.452724"
         height="2.1600001" />
      <polygon
         fill="#8c8c8c"
         points="44.28,21.4128 45.72,22.0752 47.88,22.0752 49.32,21.4128 49.32,20.6352 44.28,20.6352 "
         id="polygon100"
         transform="translate(0,23.877508)" />
      <rect
         x="52.919998"
         fill="#8c8c8c"
         width="2.1600001"
         id="connector7pin"
         y="44.512707"
         height="3.1248" />
      <rect
         x="52.919998"
         fill="#8c8c8c"
         width="2.1600001"
         id="connector7terminal"
         y="45.452724"
         height="2.1600001" />
      <polygon
         fill="#8c8c8c"
         points="51.48,21.4128 52.92,22.0752 55.08,22.0752 56.52,21.4128 56.52,20.6352 51.48,20.6352 "
         id="polygon104"
         transform="translate(0,23.877508)" />
      <rect
         x="60.119999"
         fill="#8c8c8c"
         width="2.1600001"
         id="connector8pin"
         y="44.512707"
         height="3.1248" />
      <rect
         x="60.119999"
         fill="#8c8c8c"
         width="2.1600001"
         id="connector8terminal"
         y="45.452724"
         height="2.1600001" />
      <polygon
         fill="#8c8c8c"
         points="58.68,21.4128 60.12,22.0752 62.28,22.0752 63.72,21.4128 63.72,20.6352 58.68,20.6352 "
         id="polygon108"
         transform="translate(0,23.877508)" />
      <rect
         x="67.32"
         fill="#8c8c8c"
         width="2.1600001"
         id="connector9pin"
         y="44.512707"
         height="3.1248" />
      <rect
         x="67.32"
         fill="#8c8c8c"
         width="2.1600001"
         id="connector9terminal"
         y="45.452724"
         height="2.1600001" />
      <polygon
         fill="#8c8c8c"
         points="65.88,21.4128 67.32,22.0752 69.48,22.0752 70.92,21.4128 70.92,20.6352 65.88,20.6352 "
         id="polygon112"
         transform="translate(0,23.877508)" />
      <rect
         x="74.519997"
         fill="#8c8c8c"
         width="2.1600001"
         id="connector10pin"
         y="44.512707"
         height="3.1248" />
      <rect
         x="74.519997"
         fill="#8c8c8c"
         width="2.1600001"
         id="connector10terminal"
         y="45.452724"
         height="2.1600001" />
      <polygon
         fill="#8c8c8c"
         points="73.08,21.4128 74.52,22.0752 76.68,22.0752 78.12,21.4128 78.12,20.6352 73.08,20.6352 "
         id="polygon116"
         transform="translate(0,23.877508)" />
      <rect
         x="81.720001"
         fill="#8c8c8c"
         width="2.1600001"
         id="connector11pin"
         y="44.512707"
         height="3.1248" />
      <rect
         x="81.720001"
         fill="#8c8c8c"
         width="2.1600001"
         id="connector11terminal"
         y="45.452724"
         height="2.1600001" />
      <polygon
         fill="#8c8c8c"
         points="80.28,21.4128 81.72,22.0752 83.88,22.0752 85.32,21.4128 85.32,20.6352 80.28,20.6352 "
         id="polygon120"
         transform="translate(0,23.877508)" />
      <rect
         x="88.919998"
         fill="#8c8c8c"
         width="2.1600001"
         id="connector12pin"
         y="44.512707"
         height="3.1248" />
      <rect
         x="88.895775"
         fill="#8c8c8c"
         width="2.1600001"
         id="connector12terminal"
         y="45.452724"
         height="2.1600001" />
      <polygon
         fill="#8c8c8c"
         points="87.48,21.4128 88.92,22.0752 91.08,22.0752 92.52,21.4128 92.52,20.6352 87.48,20.6352 "
         id="polygon124"
         transform="translate(0,23.877508)" />
    </g>
  </g>
</svg>
